<svg width="17" height="17" viewBox="0 0 17 17" fill="none" xmlns="http://www.w3.org/2000/svg">
<rect x="0.14917" y="0.893921" width="16.0256" height="16.0256" rx="2.67093" fill="#F5F7FA"/>
<g clip-path="url(#clip0_212_1612)">
<path d="M12.9822 4.79702C12.9822 4.9526 13.1098 5.07872 13.2674 5.07872H13.5525C13.71 5.07872 13.8377 4.9526 13.8377 4.79702C13.8377 4.64144 13.71 4.51532 13.5525 4.51532H13.2674C13.1098 4.51532 12.9822 4.64144 12.9822 4.79702Z" fill="#212326"/>
<path d="M4.71201 13.5297H6.09736L5.69405 13.1313C5.5871 13.0257 5.44202 12.9663 5.29076 12.9663H4.71201C2.50702 12.9663 0.719525 11.2006 0.719525 9.02252C0.719525 6.84441 2.50702 5.07872 4.71201 5.07872H9.27486C11.4798 5.07872 13.2673 6.84441 13.2673 9.02252C13.2673 11.2006 11.4798 12.9663 9.27486 12.9663H7.56799C7.34108 12.9663 7.12348 12.8773 6.96302 12.7188L6.49054 12.2521C6.22314 11.9879 5.86044 11.8395 5.48227 11.8395H4.71201C3.13701 11.8395 1.86024 10.5783 1.86024 9.02252C1.86024 7.46672 3.13701 6.20552 4.71201 6.20552H9.27486C10.8499 6.20552 12.1266 7.46672 12.1266 9.02252C12.1266 10.5783 10.8499 11.8395 9.27486 11.8395H8.17888C7.95197 11.8395 7.73437 11.7505 7.57392 11.592L7.10141 11.1253C6.83401 10.8611 6.47133 10.7127 6.09316 10.7127H4.71201C3.76703 10.7127 3.00095 9.95598 3.00095 9.02252C3.00095 8.08905 3.76703 7.33232 4.71201 7.33232H9.27486C10.2198 7.33232 10.9859 8.08905 10.9859 9.02252C10.9859 9.9446 10.2384 10.6942 9.30935 10.7124L9.30917 10.7127H8.89183C8.66492 10.7127 8.44732 10.6237 8.28686 10.4652L7.81436 9.99846C7.59495 9.78171 7.3114 9.64291 7.00776 9.60007L6.99343 9.58592H4.71201C4.39702 9.58592 4.14166 9.33367 4.14166 9.02252C4.14166 8.71136 4.39702 8.45912 4.71201 8.45912H9.27486C9.58985 8.45912 9.84521 8.71136 9.84521 9.02252C9.84521 9.33367 9.58985 9.58592 9.27486 9.58592H8.13415L8.53745 9.98431C8.64441 10.09 8.78948 10.1493 8.94074 10.1493H9.27486C9.90485 10.1493 10.4156 9.64483 10.4156 9.02252C10.4156 8.40021 9.90485 7.89572 9.27486 7.89572H4.71201C4.08202 7.89572 3.5713 8.40021 3.5713 9.02252C3.5713 9.64483 4.08202 10.1493 4.71201 10.1493H6.80611C7.03302 10.1493 7.25062 10.2384 7.41107 10.3968L7.88358 10.8636C8.15098 11.1277 8.51366 11.2761 8.89183 11.2761H9.41745V11.2718C10.611 11.1991 11.5563 10.2198 11.5563 9.02252C11.5563 7.7779 10.5348 6.76892 9.27486 6.76892H4.71201C3.45203 6.76892 2.43059 7.7779 2.43059 9.02252C2.43059 10.2672 3.45203 11.2761 4.71201 11.2761H6.09316C6.32007 11.2761 6.53768 11.3652 6.69813 11.5236L7.17063 11.9904C7.43804 12.2545 7.80072 12.4029 8.17888 12.4029H9.27486C11.1649 12.4029 12.697 10.8895 12.697 9.02252C12.697 7.15557 11.1649 5.64212 9.27486 5.64212H4.71201C2.82202 5.64212 1.28988 7.15557 1.28988 9.02252C1.28988 10.8895 2.82202 12.4029 4.71201 12.4029H5.48227C5.70918 12.4029 5.92678 12.492 6.08723 12.6504L6.55974 13.1172C6.82714 13.3813 7.18982 13.5297 7.56799 13.5297H9.27486C11.7948 13.5297 13.8377 11.5118 13.8377 9.02252C13.8377 6.53326 11.7948 4.51532 9.27486 4.51532L4.71201 4.51532C2.19202 4.51532 0.14917 6.53326 0.14917 9.02252C0.14917 11.5118 2.19203 13.5297 4.71201 13.5297Z" fill="#212326"/>
</g>
<defs>
<clipPath id="clip0_212_1612">
<rect width="13.6885" height="9.0144" fill="white" transform="translate(0.14917 4.51532)"/>
</clipPath>
</defs>
</svg>
