<svg width="17" height="17" viewBox="0 0 17 17" fill="none" xmlns="http://www.w3.org/2000/svg">
<rect x="0.00683594" y="0.893921" width="16.0256" height="16.0256" rx="2.67093" fill="#F5F7FA"/>
<g clip-path="url(#clip0_212_1589)">
<path fill-rule="evenodd" clip-rule="evenodd" d="M3.37823 5.55513L0.0443115 8.85553C0.711156 9.51568 1.47292 10.072 2.30347 10.5073C2.53303 11.1101 2.89287 11.6755 3.38298 12.1606C5.22689 13.986 8.21643 13.986 10.0603 12.1606C10.5504 11.6755 10.9103 11.1101 11.1398 10.5073C11.9704 10.072 12.7321 9.51568 13.399 8.85553L10.0678 5.55781C10.0653 5.55535 10.0628 5.55288 10.0603 5.55042C8.21643 3.72506 5.22689 3.72506 3.38298 5.55042C3.3814 5.55199 3.37981 5.55356 3.37823 5.55513ZM9.7413 11.1028C8.76975 11.4273 7.74985 11.5936 6.72164 11.5936C5.69343 11.5936 4.67357 11.4273 3.70202 11.1028C3.80729 11.241 3.92351 11.3737 4.05071 11.4996C5.52583 12.9599 7.91745 12.9599 9.39257 11.4996C9.51978 11.3737 9.63603 11.241 9.7413 11.1028ZM4.11919 6.14533C4.36969 6.30916 4.63604 6.44936 4.91476 6.56365C5.48761 6.79855 6.10159 6.91945 6.72164 6.91945C7.3417 6.91945 7.95568 6.79855 8.52853 6.56365C8.80724 6.44936 9.0736 6.30916 9.32413 6.14533C7.86741 4.77318 5.57588 4.77319 4.11919 6.14533Z" fill="#3B4158"/>
</g>
<defs>
<clipPath id="clip0_212_1589">
<rect width="13.3547" height="9.34826" fill="white" transform="translate(0.0443115 4.1814)"/>
</clipPath>
</defs>
</svg>
