<svg width="20" height="17" viewBox="0 0 20 17" fill="none" xmlns="http://www.w3.org/2000/svg">
<rect x="0.720947" y="0.893921" width="16.0256" height="16.0256" rx="2.67093" fill="#F5F7FA"/>
<g clip-path="url(#clip0_212_1592)">
<path d="M19.0822 7.40977C19.0841 7.39585 19.0841 7.38178 19.0822 7.36786C19.084 7.35651 19.084 7.34494 19.0822 7.33358L18.9461 6.35446C18.9265 6.23732 18.874 6.12784 18.7946 6.03825L18.7713 6.01158L18.7285 5.96967L16.3736 3.98097L16.4396 4.04574C16.3856 3.98235 16.3178 3.93164 16.2411 3.89735C16.1644 3.86307 16.0809 3.84608 15.9966 3.84763H15.2816C15.1653 3.84538 15.0517 3.88162 14.959 3.9505C14.8618 3.88203 14.7446 3.84598 14.6248 3.84763H13.9098C13.816 3.84614 13.7235 3.86896 13.6416 3.91378C13.5597 3.95861 13.4914 4.02384 13.4435 4.10289C13.3696 4.21578 13.3419 4.35181 13.3658 4.48387L13.4551 5.10105C13.3959 5.06814 13.3289 5.05106 13.2608 5.05152H9.79835C9.67412 5.05229 9.55275 5.08799 9.44859 5.15438C9.34788 5.21619 9.26703 5.30468 9.21544 5.40964L8.94729 5.18486C8.84176 5.08913 8.70246 5.03724 8.55869 5.04009H3.12597C3.0013 5.04232 2.8794 5.07646 2.77234 5.13915C2.62589 5.22319 2.51855 5.35983 2.47311 5.52012L0.747696 11.1776C0.715457 11.2709 0.712285 11.3714 0.738588 11.4664C0.76489 11.5614 0.819474 11.6466 0.895368 11.711C0.915143 11.7274 0.935908 11.7427 0.957546 11.7567C0.957546 11.7567 0.922566 11.7339 0.903136 11.7148L3.2581 13.7073C3.35772 13.7972 3.48797 13.8475 3.62337 13.8483H9.09886C9.2239 13.8451 9.34589 13.8096 9.45249 13.7454C9.51278 13.7131 9.56672 13.6705 9.61182 13.6197L9.63125 13.593L9.66234 13.5549L9.68565 13.513L9.94214 13.7302C10.0403 13.8165 10.1677 13.864 10.2997 13.8635H15.7868C15.9117 13.8594 16.0334 13.824 16.1404 13.7607C16.1993 13.7264 16.253 13.684 16.2998 13.6349L16.3192 13.6083L16.3502 13.5702C16.3668 13.5461 16.3811 13.5206 16.393 13.494C16.4057 13.4709 16.4161 13.4466 16.4241 13.4216L17.9979 8.25555V8.20983C17.9999 8.1921 17.9999 8.17422 17.9979 8.15649V8.12221C17.9998 8.11084 17.9998 8.09927 17.9979 8.08791C17.9997 8.06382 17.9997 8.03963 17.9979 8.01552H18.5031C18.5471 8.01947 18.5913 8.01947 18.6353 8.01552H18.6702C18.6987 8.0072 18.7261 7.99568 18.7519 7.98124H18.7907L18.8607 7.9279L18.8917 7.90504L18.9461 7.83645V7.81362L18.985 7.74884C18.9828 7.73624 18.9828 7.72335 18.985 7.71075C18.9829 7.70457 18.9829 7.69788 18.985 7.6917C18.9933 7.66936 18.9998 7.64643 19.0044 7.62311C19.0026 7.6156 19.0026 7.60776 19.0044 7.60025C19.0026 7.58891 19.0026 7.57732 19.0044 7.56597C19.0044 7.56597 19.0822 7.41739 19.0822 7.40977Z" fill="black"/>
<path d="M8.71798 5.47447C8.73861 5.49275 8.75302 5.5168 8.75927 5.54337C8.76554 5.56994 8.76333 5.59774 8.75297 5.62304L7.03145 11.2767C7.00977 11.3385 6.96542 11.3901 6.90709 11.4215C6.85963 11.4527 6.80469 11.471 6.74774 11.4749H1.27617C1.22945 11.4727 1.18518 11.4537 1.15182 11.4215C1.13197 11.4035 1.11804 11.3801 1.11181 11.3544C1.10558 11.3286 1.10734 11.3016 1.11684 11.2767L2.84226 5.62304C2.86214 5.56054 2.90509 5.50756 2.96272 5.47447C3.01097 5.44557 3.06564 5.42858 3.12205 5.42494H8.59362C8.63999 5.42537 8.68444 5.44308 8.71798 5.47447ZM5.86172 10.1376L6.89153 6.76216H4.00809L2.98215 10.1376H5.86172ZM13.9409 5.53161C13.9595 5.55288 13.9829 5.56974 14.0091 5.58096C14.0353 5.59217 14.0638 5.59744 14.0924 5.59637H14.8036C14.8307 5.59664 14.8573 5.59012 14.8812 5.57746C14.9049 5.56479 14.925 5.54639 14.9396 5.52399C14.9522 5.50649 14.9611 5.48668 14.9658 5.46574C14.9705 5.4448 14.9708 5.42315 14.9668 5.40208L14.8269 4.3963C14.8136 4.34975 14.7896 4.30677 14.7569 4.27057C14.7383 4.24931 14.7149 4.23244 14.6887 4.22123C14.6625 4.21001 14.634 4.20474 14.6054 4.20581H13.8942C13.8672 4.20555 13.8404 4.21206 13.8167 4.22473C13.7929 4.23739 13.7727 4.25579 13.7582 4.2782C13.731 4.33153 13.7194 4.36582 13.731 4.3963L13.8748 5.40208C13.8822 5.45105 13.9053 5.49643 13.9409 5.53161ZM16.1987 4.38868C16.1853 4.34213 16.1614 4.29914 16.1287 4.26296C16.1108 4.24176 16.0882 4.2249 16.0626 4.21367C16.037 4.20244 16.0091 4.19714 15.9811 4.19819H15.266C15.2394 4.19745 15.213 4.20378 15.1898 4.21652C15.1665 4.22927 15.1472 4.24795 15.1339 4.27057C15.108 4.30437 15.0968 4.34683 15.1028 4.38868L15.2466 5.39446C15.2556 5.44291 15.2785 5.48785 15.3126 5.52399C15.3316 5.54484 15.355 5.56143 15.3812 5.5726C15.4074 5.58378 15.4357 5.58929 15.4642 5.58875H16.1792C16.2058 5.5891 16.232 5.5826 16.2552 5.56989C16.2784 5.55718 16.2978 5.53873 16.3114 5.51637C16.3249 5.49933 16.3343 5.47953 16.339 5.45843C16.3438 5.43734 16.3436 5.41548 16.3386 5.39446L16.1987 4.38868ZM13.3152 5.91259L13.2452 5.41732H9.79832C9.7442 5.42024 9.69184 5.43735 9.64675 5.46684C9.61813 5.48215 9.59322 5.50335 9.57376 5.529C9.55432 5.55466 9.54078 5.58414 9.53407 5.61543L9.24649 6.56024C9.23502 6.58385 9.23109 6.61035 9.23525 6.63619C9.23943 6.66203 9.25147 6.68602 9.2698 6.70502C9.30258 6.73522 9.34535 6.75282 9.39028 6.75455H13.5795L12.5497 10.13H8.37213C8.31826 10.1312 8.2658 10.147 8.22058 10.1757C8.16562 10.2099 8.12548 10.2629 8.10788 10.3243L7.81643 11.2691C7.80691 11.2934 7.80441 11.3197 7.80921 11.3453C7.81403 11.3708 7.82591 11.3946 7.84361 11.4139C7.87536 11.4461 7.91847 11.4652 7.96409 11.4672H13.4512C13.508 11.4624 13.5627 11.4441 13.6105 11.4139C13.6679 11.3823 13.711 11.3306 13.731 11.2691L15.3087 6.10308H13.5328C13.5046 6.10362 13.4767 6.09849 13.4506 6.08801C13.4245 6.07752 13.4009 6.0619 13.3813 6.04212C13.3491 6.00757 13.3264 5.96564 13.3152 5.92021V5.91259Z" fill="white"/>
</g>
<defs>
<clipPath id="clip0_212_1592">
<rect width="18.3627" height="10.016" fill="white" transform="translate(0.720947 3.84753)"/>
</clipPath>
</defs>
</svg>
